<?xml version="1.0" encoding="UTF-8"?>
<svg xmlns="http://www.w3.org/2000/svg" xmlns:xlink="http://www.w3.org/1999/xlink" width="23.65" height="10.95" viewBox="0 0 23.65 10.95">
<defs>
<g>
<g id="glyph-0-0">
<path d="M 2.453125 -6.8125 L 1.140625 -5.46875 L 1.3125 -5.296875 L 2.453125 -6.296875 L 3.578125 -5.296875 L 3.765625 -5.46875 Z M 2.453125 -6.8125 "/>
</g>
<g id="glyph-0-1">
<path d="M 3.25 2.359375 C 3.25 2.328125 3.25 2.3125 3.078125 2.140625 C 1.859375 0.90625 1.546875 -0.953125 1.546875 -2.453125 C 1.546875 -4.15625 1.90625 -5.875 3.125 -7.09375 C 3.25 -7.21875 3.25 -7.234375 3.25 -7.265625 C 3.25 -7.328125 3.203125 -7.359375 3.15625 -7.359375 C 3.046875 -7.359375 2.171875 -6.6875 1.59375 -5.453125 C 1.09375 -4.359375 0.96875 -3.28125 0.96875 -2.453125 C 0.96875 -1.6875 1.078125 -0.5 1.625 0.609375 C 2.203125 1.8125 3.046875 2.453125 3.15625 2.453125 C 3.203125 2.453125 3.25 2.421875 3.25 2.359375 Z M 3.25 2.359375 "/>
</g>
<g id="glyph-0-2">
<path d="M 2.828125 -2.453125 C 2.828125 -3.21875 2.734375 -4.40625 2.1875 -5.515625 C 1.59375 -6.71875 0.75 -7.359375 0.65625 -7.359375 C 0.59375 -7.359375 0.5625 -7.3125 0.5625 -7.265625 C 0.5625 -7.234375 0.5625 -7.21875 0.75 -7.03125 C 1.703125 -6.0625 2.265625 -4.5 2.265625 -2.453125 C 2.265625 -0.78125 1.90625 0.953125 0.6875 2.1875 C 0.5625 2.3125 0.5625 2.328125 0.5625 2.359375 C 0.5625 2.40625 0.59375 2.453125 0.65625 2.453125 C 0.75 2.453125 1.640625 1.78125 2.21875 0.546875 C 2.71875 -0.546875 2.828125 -1.625 2.828125 -2.453125 Z M 2.828125 -2.453125 "/>
</g>
<g id="glyph-1-0">
<path d="M 3.65625 -3.703125 C 3.484375 -4.078125 3.203125 -4.34375 2.75 -4.34375 C 1.609375 -4.34375 0.390625 -2.890625 0.390625 -1.46875 C 0.390625 -0.546875 0.9375 0.109375 1.703125 0.109375 C 1.890625 0.109375 2.390625 0.0625 2.96875 -0.625 C 3.046875 -0.21875 3.390625 0.109375 3.859375 0.109375 C 4.203125 0.109375 4.4375 -0.125 4.59375 -0.4375 C 4.765625 -0.78125 4.890625 -1.390625 4.890625 -1.40625 C 4.890625 -1.5 4.796875 -1.5 4.765625 -1.5 C 4.671875 -1.5 4.65625 -1.46875 4.625 -1.328125 C 4.46875 -0.6875 4.28125 -0.109375 3.890625 -0.109375 C 3.625 -0.109375 3.59375 -0.359375 3.59375 -0.5625 C 3.59375 -0.78125 3.609375 -0.859375 3.71875 -1.28125 C 3.828125 -1.703125 3.84375 -1.796875 3.9375 -2.171875 L 4.28125 -3.546875 C 4.359375 -3.8125 4.359375 -3.84375 4.359375 -3.875 C 4.359375 -4.046875 4.234375 -4.140625 4.078125 -4.140625 C 3.84375 -4.140625 3.6875 -3.921875 3.65625 -3.703125 Z M 3.015625 -1.171875 C 2.96875 -0.984375 2.96875 -0.96875 2.828125 -0.796875 C 2.390625 -0.265625 1.984375 -0.109375 1.71875 -0.109375 C 1.234375 -0.109375 1.09375 -0.640625 1.09375 -1.03125 C 1.09375 -1.515625 1.40625 -2.734375 1.625 -3.171875 C 1.9375 -3.765625 2.375 -4.125 2.765625 -4.125 C 3.40625 -4.125 3.546875 -3.3125 3.546875 -3.25 C 3.546875 -3.203125 3.515625 -3.140625 3.515625 -3.09375 Z M 3.015625 -1.171875 "/>
</g>
<g id="glyph-1-1">
<path d="M 5.3125 -5.984375 C 5.390625 -6.3125 5.40625 -6.390625 5.953125 -6.390625 C 6.109375 -6.390625 6.21875 -6.390625 6.21875 -6.578125 C 6.21875 -6.671875 6.15625 -6.703125 6.078125 -6.703125 C 5.828125 -6.703125 5.234375 -6.671875 4.984375 -6.671875 C 4.65625 -6.671875 3.859375 -6.703125 3.546875 -6.703125 C 3.453125 -6.703125 3.34375 -6.703125 3.34375 -6.5 C 3.34375 -6.390625 3.421875 -6.390625 3.671875 -6.390625 C 3.890625 -6.390625 4 -6.390625 4.234375 -6.375 C 4.46875 -6.34375 4.546875 -6.3125 4.546875 -6.1875 C 4.546875 -6.125 4.53125 -6.046875 4.5 -5.96875 L 3.375 -1.46875 C 3.140625 -0.515625 2.46875 0 1.96875 0 C 1.703125 0 1.1875 -0.09375 1.03125 -0.609375 C 1.0625 -0.59375 1.125 -0.59375 1.140625 -0.59375 C 1.53125 -0.59375 1.78125 -0.9375 1.78125 -1.234375 C 1.78125 -1.546875 1.515625 -1.640625 1.359375 -1.640625 C 1.171875 -1.640625 0.703125 -1.515625 0.703125 -0.859375 C 0.703125 -0.25 1.21875 0.21875 1.984375 0.21875 C 2.890625 0.21875 3.921875 -0.4375 4.15625 -1.40625 Z M 5.3125 -5.984375 "/>
</g>
<g id="glyph-2-0">
<path d="M 1.890625 -2.875 C 1.984375 -2.859375 2.0625 -2.859375 2.265625 -2.796875 C 2.484375 -2.734375 2.640625 -2.6875 2.78125 -2.6875 C 3.046875 -2.6875 3.078125 -2.90625 3.078125 -2.96875 C 3.078125 -3.015625 3.046875 -3.234375 2.78125 -3.234375 C 2.640625 -3.234375 2.484375 -3.1875 2.265625 -3.125 C 2.0625 -3.078125 1.984375 -3.0625 1.890625 -3.046875 C 1.890625 -3.296875 1.953125 -3.578125 1.984375 -3.796875 C 2 -3.9375 2.0625 -4.28125 2.0625 -4.53125 C 2.0625 -4.734375 1.96875 -4.84375 1.796875 -4.84375 C 1.65625 -4.84375 1.53125 -4.765625 1.53125 -4.53125 C 1.53125 -4.296875 1.59375 -3.953125 1.625 -3.71875 C 1.640625 -3.640625 1.703125 -3.3125 1.71875 -3.046875 C 1.609375 -3.0625 1.546875 -3.078125 1.34375 -3.125 C 1.125 -3.1875 0.953125 -3.234375 0.828125 -3.234375 C 0.5625 -3.234375 0.53125 -3.03125 0.53125 -2.96875 C 0.53125 -2.90625 0.5625 -2.6875 0.828125 -2.6875 C 0.953125 -2.6875 1.125 -2.734375 1.34375 -2.796875 C 1.546875 -2.859375 1.609375 -2.859375 1.71875 -2.875 C 1.703125 -2.703125 1.65625 -2.484375 1.625 -2.34375 C 1.53125 -1.90625 1.53125 -1.859375 1.53125 -1.5 C 1.53125 -0.171875 1.65625 1.234375 1.6875 1.375 C 1.6875 1.4375 1.703125 1.46875 1.796875 1.46875 C 1.90625 1.46875 1.90625 1.4375 1.921875 1.328125 C 1.921875 1.328125 1.984375 0.734375 2 0.3125 C 2.046875 -0.296875 2.0625 -0.90625 2.0625 -1.5 C 2.0625 -1.859375 2.0625 -1.90625 1.96875 -2.34375 C 1.953125 -2.421875 1.890625 -2.703125 1.890625 -2.875 Z M 1.890625 -2.875 "/>
</g>
</g>
<clipPath id="clip-0">
<path clip-rule="nonzero" d="M 5 0.0546875 L 9 0.0546875 L 9 7 L 5 7 Z M 5 0.0546875 "/>
</clipPath>
<clipPath id="clip-1">
<path clip-rule="nonzero" d="M 10 1 L 13 1 L 13 10.84375 L 10 10.84375 Z M 10 1 "/>
</clipPath>
<clipPath id="clip-2">
<path clip-rule="nonzero" d="M 20 1 L 23 1 L 23 10.84375 L 20 10.84375 Z M 20 1 "/>
</clipPath>
</defs>
<g fill="rgb(0%, 0%, 0%)" fill-opacity="1">
<use xlink:href="#glyph-0-0" x="0.139929" y="8.390848"/>
</g>
<g fill="rgb(0%, 0%, 0%)" fill-opacity="1">
<use xlink:href="#glyph-1-0" x="0.000000000000014211" y="8.390848"/>
</g>
<g clip-path="url(#clip-0)">
<g fill="rgb(0%, 0%, 0%)" fill-opacity="1">
<use xlink:href="#glyph-2-0" x="5.189204" y="4.828567"/>
</g>
</g>
<g clip-path="url(#clip-1)">
<g fill="rgb(0%, 0%, 0%)" fill-opacity="1">
<use xlink:href="#glyph-0-1" x="9.279669" y="8.390848"/>
</g>
</g>
<g fill="rgb(0%, 0%, 0%)" fill-opacity="1">
<use xlink:href="#glyph-1-1" x="13.098158" y="8.390848"/>
</g>
<g clip-path="url(#clip-2)">
<g fill="rgb(0%, 0%, 0%)" fill-opacity="1">
<use xlink:href="#glyph-0-2" x="19.485629" y="8.390848"/>
</g>
</g>
</svg>
