<?xml version="1.0" encoding="UTF-8"?>
<svg xmlns="http://www.w3.org/2000/svg" xmlns:xlink="http://www.w3.org/1999/xlink" width="20.81" height="9.96" viewBox="0 0 20.81 9.96">
<defs>
<g>
<g id="glyph-0-0">
<path d="M 2.46875 -6.859375 L 1.140625 -5.515625 L 1.328125 -5.328125 L 2.46875 -6.34375 L 3.609375 -5.328125 L 3.78125 -5.515625 Z M 2.46875 -6.859375 "/>
</g>
<g id="glyph-0-1">
<path d="M 3.265625 2.375 C 3.265625 2.34375 3.265625 2.328125 3.09375 2.15625 C 1.859375 0.90625 1.546875 -0.953125 1.546875 -2.46875 C 1.546875 -4.1875 1.921875 -5.90625 3.140625 -7.140625 C 3.265625 -7.265625 3.265625 -7.28125 3.265625 -7.3125 C 3.265625 -7.375 3.234375 -7.40625 3.171875 -7.40625 C 3.078125 -7.40625 2.1875 -6.734375 1.59375 -5.484375 C 1.09375 -4.390625 0.984375 -3.296875 0.984375 -2.46875 C 0.984375 -1.703125 1.09375 -0.5 1.625 0.609375 C 2.21875 1.828125 3.078125 2.46875 3.171875 2.46875 C 3.234375 2.46875 3.265625 2.4375 3.265625 2.375 Z M 3.265625 2.375 "/>
</g>
<g id="glyph-0-2">
<path d="M 2.859375 -2.46875 C 2.859375 -3.234375 2.75 -4.4375 2.203125 -5.546875 C 1.609375 -6.765625 0.765625 -7.40625 0.65625 -7.40625 C 0.609375 -7.40625 0.5625 -7.359375 0.5625 -7.3125 C 0.5625 -7.28125 0.5625 -7.265625 0.75 -7.078125 C 1.71875 -6.109375 2.28125 -4.53125 2.28125 -2.46875 C 2.28125 -0.78125 1.921875 0.953125 0.6875 2.203125 C 0.5625 2.328125 0.5625 2.34375 0.5625 2.375 C 0.5625 2.421875 0.609375 2.46875 0.65625 2.46875 C 0.765625 2.46875 1.65625 1.796875 2.234375 0.546875 C 2.734375 -0.546875 2.859375 -1.640625 2.859375 -2.46875 Z M 2.859375 -2.46875 "/>
</g>
<g id="glyph-1-0">
<path d="M 3.6875 -3.734375 C 3.5 -4.09375 3.21875 -4.359375 2.78125 -4.359375 C 1.625 -4.359375 0.390625 -2.90625 0.390625 -1.46875 C 0.390625 -0.546875 0.9375 0.109375 1.703125 0.109375 C 1.90625 0.109375 2.40625 0.0625 2.984375 -0.625 C 3.078125 -0.21875 3.421875 0.109375 3.890625 0.109375 C 4.234375 0.109375 4.46875 -0.125 4.625 -0.4375 C 4.796875 -0.796875 4.921875 -1.390625 4.921875 -1.40625 C 4.921875 -1.515625 4.828125 -1.515625 4.796875 -1.515625 C 4.703125 -1.515625 4.6875 -1.46875 4.65625 -1.328125 C 4.5 -0.6875 4.3125 -0.109375 3.90625 -0.109375 C 3.640625 -0.109375 3.609375 -0.359375 3.609375 -0.5625 C 3.609375 -0.78125 3.640625 -0.859375 3.75 -1.296875 C 3.84375 -1.703125 3.875 -1.8125 3.953125 -2.1875 L 4.3125 -3.5625 C 4.390625 -3.84375 4.390625 -3.859375 4.390625 -3.90625 C 4.390625 -4.0625 4.265625 -4.171875 4.09375 -4.171875 C 3.859375 -4.171875 3.71875 -3.953125 3.6875 -3.734375 Z M 3.046875 -1.171875 C 2.984375 -1 2.984375 -0.984375 2.84375 -0.8125 C 2.40625 -0.265625 2 -0.109375 1.734375 -0.109375 C 1.234375 -0.109375 1.09375 -0.65625 1.09375 -1.03125 C 1.09375 -1.53125 1.40625 -2.75 1.640625 -3.203125 C 1.953125 -3.78125 2.390625 -4.140625 2.78125 -4.140625 C 3.421875 -4.140625 3.5625 -3.34375 3.5625 -3.28125 C 3.5625 -3.21875 3.546875 -3.15625 3.53125 -3.109375 Z M 3.046875 -1.171875 "/>
</g>
<g id="glyph-1-1">
<path d="M 2.984375 -3.203125 L 3.953125 -3.203125 C 4.6875 -3.203125 4.765625 -3.046875 4.765625 -2.765625 C 4.765625 -2.703125 4.765625 -2.578125 4.703125 -2.28125 C 4.6875 -2.234375 4.671875 -2.1875 4.671875 -2.171875 C 4.671875 -2.09375 4.734375 -2.046875 4.796875 -2.046875 C 4.890625 -2.046875 4.890625 -2.078125 4.9375 -2.265625 L 5.484375 -4.40625 C 5.515625 -4.515625 5.515625 -4.53125 5.515625 -4.5625 C 5.515625 -4.578125 5.484375 -4.671875 5.390625 -4.671875 C 5.296875 -4.671875 5.28125 -4.625 5.25 -4.46875 C 5.03125 -3.6875 4.8125 -3.515625 3.96875 -3.515625 L 3.078125 -3.515625 L 3.703125 -6.03125 C 3.796875 -6.375 3.796875 -6.40625 4.234375 -6.40625 L 5.546875 -6.40625 C 6.75 -6.40625 6.984375 -6.078125 6.984375 -5.328125 C 6.984375 -5.09375 6.984375 -5.0625 6.953125 -4.796875 C 6.9375 -4.65625 6.9375 -4.640625 6.9375 -4.609375 C 6.9375 -4.5625 6.96875 -4.5 7.046875 -4.5 C 7.15625 -4.5 7.171875 -4.546875 7.1875 -4.734375 L 7.390625 -6.453125 C 7.421875 -6.71875 7.359375 -6.71875 7.125 -6.71875 L 2.28125 -6.71875 C 2.078125 -6.71875 1.984375 -6.71875 1.984375 -6.515625 C 1.984375 -6.40625 2.078125 -6.40625 2.265625 -6.40625 C 2.625 -6.40625 2.90625 -6.40625 2.90625 -6.234375 C 2.90625 -6.1875 2.90625 -6.171875 2.859375 -6 L 1.546875 -0.765625 C 1.453125 -0.390625 1.4375 -0.3125 0.65625 -0.3125 C 0.484375 -0.3125 0.375 -0.3125 0.375 -0.125 C 0.375 0 0.5 0 0.515625 0 C 0.8125 0 1.546875 -0.03125 1.828125 -0.03125 C 2.15625 -0.03125 2.96875 0 3.296875 0 C 3.390625 0 3.5 0 3.5 -0.1875 C 3.5 -0.265625 3.453125 -0.28125 3.453125 -0.296875 C 3.421875 -0.3125 3.390625 -0.3125 3.171875 -0.3125 C 2.953125 -0.3125 2.90625 -0.3125 2.65625 -0.328125 C 2.375 -0.359375 2.34375 -0.390625 2.34375 -0.515625 C 2.34375 -0.546875 2.34375 -0.609375 2.375 -0.75 Z M 2.984375 -3.203125 "/>
</g>
</g>
<clipPath id="clip-0">
<path clip-rule="nonzero" d="M 1 0.0234375 L 4 0.0234375 L 4 3 L 1 3 Z M 1 0.0234375 "/>
</clipPath>
<clipPath id="clip-1">
<path clip-rule="nonzero" d="M 6 0.0234375 L 9 0.0234375 L 9 9.894531 L 6 9.894531 Z M 6 0.0234375 "/>
</clipPath>
<clipPath id="clip-2">
<path clip-rule="nonzero" d="M 9 0.0234375 L 17 0.0234375 L 17 8 L 9 8 Z M 9 0.0234375 "/>
</clipPath>
<clipPath id="clip-3">
<path clip-rule="nonzero" d="M 17 0.0234375 L 20 0.0234375 L 20 9.894531 L 17 9.894531 Z M 17 0.0234375 "/>
</clipPath>
</defs>
<g clip-path="url(#clip-0)">
<g fill="rgb(0%, 0%, 0%)" fill-opacity="1">
<use xlink:href="#glyph-0-0" x="0.140715" y="7.426661"/>
</g>
</g>
<g fill="rgb(0%, 0%, 0%)" fill-opacity="1">
<use xlink:href="#glyph-1-0" x="0.000000000000014211" y="7.426661"/>
</g>
<g clip-path="url(#clip-1)">
<g fill="rgb(0%, 0%, 0%)" fill-opacity="1">
<use xlink:href="#glyph-0-1" x="5.218355" y="7.426661"/>
</g>
</g>
<g clip-path="url(#clip-2)">
<g fill="rgb(0%, 0%, 0%)" fill-opacity="1">
<use xlink:href="#glyph-1-1" x="9.058296" y="7.426661"/>
</g>
</g>
<g clip-path="url(#clip-3)">
<g fill="rgb(0%, 0%, 0%)" fill-opacity="1">
<use xlink:href="#glyph-0-2" x="16.777815" y="7.426661"/>
</g>
</g>
</svg>
